<svg width="34" height="24" viewBox="0 0 34 24" fill="none" xmlns="http://www.w3.org/2000/svg">
<rect width="34" height="24" fill="white"/>
<g clip-path="url(#clip0_441_152)">
<path d="M28.9313 17.1966H5.17688C3.97594 17.1966 3 16.2206 3 15.0169V8.17687C3 6.97594 3.97594 6 5.17688 6H28.9313C30.135 6 31.1082 6.97594 31.1082 8.17687V15.0169C31.1082 16.2206 30.1322 17.1966 28.9313 17.1966Z" fill="url(#paint0_linear_441_152)"/>
<path d="M27.3254 9.55212L25.8235 15.2924L25.8179 15.3037H26.9907L28.4982 9.55212H27.3254Z" fill="#292929"/>
<path d="M8.72333 12.8175C8.56865 12.899 8.35771 12.9469 8.15802 12.9469C7.73614 12.9469 7.49708 12.8794 7.47177 12.5391V12.5166C7.47177 12.5025 7.46896 12.4884 7.46896 12.4744V11.4844L7.47177 11.3662V10.6659H7.46896V10.3678L7.47177 10.2497V9.57468L6.42552 9.71249C7.13427 9.57468 7.53927 9.01499 7.53927 8.45812V8.11499H6.36364V9.72093L6.29614 9.74061V12.7162C6.33552 13.5515 6.88677 14.0494 7.78958 14.0494C8.11021 14.0494 8.46177 13.9762 8.73177 13.8553L8.7374 13.8525V12.8091L8.72333 12.8175Z" fill="#292929"/>
<path d="M8.90917 9.33557L5.61011 9.84463V10.6799L8.90917 10.1709V9.33557Z" fill="#292929"/>
<path d="M8.90917 10.5591L5.61011 11.0681V11.8669L8.90917 11.3578V10.5591Z" fill="#292929"/>
<path d="M12.6075 10.9443C12.5597 10.0162 11.9803 9.46497 11.0353 9.46497C10.4925 9.46497 10.0425 9.6759 9.73872 10.0725C9.43497 10.469 9.27466 11.0512 9.27466 11.7572C9.27466 12.4631 9.43497 13.0481 9.73872 13.4418C10.0425 13.8384 10.4925 14.0493 11.0353 14.0493C11.9803 14.0493 12.5625 13.4953 12.6075 12.5615V13.9622H13.7831V9.56059L12.6075 9.74059M12.6693 11.7572C12.6693 12.5812 12.2362 13.1128 11.5697 13.1128C10.9031 13.1128 10.47 12.6065 10.47 11.7572C10.47 10.9078 10.8806 10.3931 11.5697 10.3931C11.9043 10.3931 12.1856 10.5225 12.3797 10.77C12.5681 11.0147 12.6693 11.355 12.6693 11.7572Z" fill="#292929"/>
<path d="M17.2117 9.46495C16.2639 9.46495 15.6845 10.0162 15.6395 10.9471V8.28088L14.4639 8.46088V13.9621H15.6395V12.5615C15.6845 13.4953 16.2667 14.0493 17.2117 14.0493C18.3198 14.0493 18.9807 13.1915 18.9807 11.7571C18.9807 10.3228 18.3198 9.46495 17.2117 9.46495ZM16.6773 13.1128C16.0079 13.1128 15.5776 12.5812 15.5776 11.7571C15.5776 11.3549 15.6789 11.0146 15.8673 10.7728C16.0614 10.5253 16.3426 10.3959 16.6773 10.3959C17.3664 10.3959 17.777 10.9049 17.777 11.7599C17.777 12.6065 17.3664 13.1128 16.6773 13.1128Z" fill="#292929"/>
<path d="M22.1785 9.46495C21.2307 9.46495 20.6513 10.0162 20.6063 10.9471V8.28088L19.4307 8.46088V13.9621H20.6063V12.5615C20.6513 13.4953 21.2335 14.0493 22.1785 14.0493C23.2866 14.0493 23.9475 13.1915 23.9475 11.7571C23.9475 10.3228 23.2866 9.46495 22.1785 9.46495ZM21.6469 13.1128C20.9775 13.1128 20.5472 12.5812 20.5472 11.7571C20.5472 11.3549 20.6485 11.0146 20.8369 10.7728C21.031 10.5253 21.3122 10.3959 21.6469 10.3959C22.336 10.3959 22.7466 10.9049 22.7466 11.7599C22.7466 12.6149 22.336 13.1128 21.6469 13.1128Z" fill="#292929"/>
<path d="M23.9504 9.55212H25.2048L26.2258 13.9565H25.1008L23.9504 9.55212Z" fill="#292929"/>
</g>
<defs>
<linearGradient id="paint0_linear_441_152" x1="3" y1="11.5983" x2="31.1082" y2="11.5983" gradientUnits="userSpaceOnUse">
<stop stop-color="#3BFF9D"/>
<stop offset="1" stop-color="#3BFFC8"/>
</linearGradient>
<clipPath id="clip0_441_152">
<rect width="28.1082" height="11.1966" fill="white" transform="translate(3 6)"/>
</clipPath>
</defs>
</svg>
