<svg width="34" height="24" viewBox="0 0 34 24" fill="none" xmlns="http://www.w3.org/2000/svg">
<rect width="34" height="24" fill="white"/>
<mask id="mask0_51552_1178" style="mask-type:alpha" maskUnits="userSpaceOnUse" x="1" y="7" width="32" height="10">
<path d="M29.9882 7H4.01176C2.34841 7 1 8.27919 1 9.85714V14.1429C1 15.7208 2.34841 17 4.01176 17H29.9882C31.6516 17 33 15.7208 33 14.1429V9.85714C33 8.27919 31.6516 7 29.9882 7Z" fill="white"/>
</mask>
<g mask="url(#mask0_51552_1178)">
<path d="M33.0006 6.99594H1V17.0028H33.0006V6.99594Z" fill="url(#paint0_linear_51552_1178)"/>
<path d="M10.2477 18.9723C1.21081 15.6263 1.59721 18.05 -2.93359 18.0831L-0.240237 4.6287C2.77207 3.22937 3.37959 4.53887 12.2178 6.77544L27.1312 18.6191C23.5275 19.1543 19.2846 22.3183 10.2477 18.9723Z" fill="url(#paint1_linear_51552_1178)" fill-opacity="0.6"/>
<path d="M22.7224 6.44058L-0.0928955 6.66373L0.424454 13.8364L7.09425 14.0283C11.1354 13.5296 15.2352 14.4293 17.5779 16.4088L21.6599 19.8578C22.2838 20.3857 23.1201 20.8176 24.0965 21.1162C25.0728 21.4147 26.1598 21.5709 27.2636 21.5712H47.7257V16.1432C47.7257 15.0937 45.9774 14.3449 44.2547 14.6566L34.295 16.8145C33.3268 16.9361 32.3169 16.8766 31.4107 16.6443C30.5046 16.4121 29.7488 16.0192 29.2521 15.5222L22.7224 6.44058Z" fill="url(#paint2_linear_51552_1178)"/>
<path d="M14.5173 15.9713C17.7556 15.9713 20.3808 14.1911 20.3808 11.9951C20.3808 9.79912 17.7556 8.01892 14.5173 8.01892C11.279 8.01892 8.65381 9.79912 8.65381 11.9951C8.65381 14.1911 11.279 15.9713 14.5173 15.9713Z" fill="url(#paint3_radial_51552_1178)"/>
<path d="M20.8 20.1487C26.873 20.1487 31.7961 17.8909 31.7961 15.1058C31.7961 12.3208 26.873 10.063 20.8 10.063C14.727 10.063 9.80383 12.3208 9.80383 15.1058C9.80383 17.8909 14.727 20.1487 20.8 20.1487Z" fill="url(#paint4_radial_51552_1178)" fill-opacity="0.7"/>
<path d="M20.1976 18.7241C24.0371 19.4079 27.8089 18.718 28.6221 17.1829C29.4353 15.6479 26.9819 13.8491 23.1423 13.1652C19.3028 12.4813 15.531 13.1713 14.7178 14.7063C13.9046 16.2414 16.358 18.0402 20.1976 18.7241Z" fill="url(#paint5_radial_51552_1178)" fill-opacity="0.7"/>
<path d="M17.6369 6.77287L0.923462 6.93634L1.30245 12.1907L6.18843 12.3313C9.14881 11.966 12.1521 12.6251 13.8683 14.0751L16.8585 16.6017C17.3156 16.9884 17.9282 17.3048 18.6435 17.5235C19.3587 17.7422 20.155 17.8566 20.9636 17.8569H35.9531L37.531 11.1068C37.531 10.338 36.2502 9.78943 34.9884 10.0178L34.2557 5.86013C33.5464 5.94924 32.8066 5.9056 32.1428 5.73549C31.479 5.56538 30.9253 5.27756 30.5615 4.91344L17.6369 6.77287Z" fill="url(#paint6_linear_51552_1178)"/>
<path fill-rule="evenodd" clip-rule="evenodd" d="M6.8077 13.4472C6.71716 13.4458 6.62677 13.4389 6.53709 13.4268C6.26652 13.3849 6.09387 13.2593 6.02027 13.0526C5.98722 12.9662 5.96896 12.8754 5.96614 12.7836V11.24L6.1258 11.2334C6.46729 11.2176 6.82935 11.1941 7.17303 11.1042L6.95385 10.3993L5.96614 10.5376V9.49991H4.79983V10.5376H4.01184V11.2492H4.79983C4.79983 11.2492 4.79983 12.7167 4.80634 13.0914C4.80698 13.3202 4.87705 13.5441 5.00821 13.7366C5.16516 13.9617 5.393 14.1026 5.72636 14.1802C6.08446 14.2632 6.44735 14.2593 6.83072 14.2552L6.83315 14.2552H6.92516V13.4513H6.88077L6.8077 13.4472ZM9.1597 10.4862C9.72471 10.3733 10.1734 10.453 10.6372 10.6173C11.1898 10.8134 11.5102 11.2421 11.5096 11.797V14.2471H10.4461V13.5463L10.1912 13.7326C10.1751 13.7445 10.1334 13.7784 10.1039 13.8024L10.1038 13.8024C10.0878 13.8154 10.0754 13.8255 10.0727 13.8275C9.71157 14.1146 9.25077 14.2658 8.77867 14.2522C8.58551 14.2554 8.39445 14.2138 8.2224 14.1309C8.05032 14.048 7.90255 13.9265 7.79206 13.777C7.6665 13.6131 7.60698 13.4115 7.60375 13.1425C7.59509 12.4355 8.0892 12.214 8.50483 12.1523C8.64017 12.1321 8.77698 12.1221 8.91398 12.1221C9.32143 12.128 9.72456 12.202 10.1046 12.3406L10.1285 12.3493L10.1577 12.36C10.1943 12.3729 10.2347 12.3729 10.2713 12.36L10.4564 12.3227C10.4564 12.3227 10.4413 11.8628 10.4185 11.7515C10.3628 11.483 10.0245 11.2998 9.67166 11.3064C9.36751 11.312 9.08392 11.5581 8.92158 11.7765C8.71644 11.6316 8.56329 11.507 8.41553 11.3861C8.3257 11.312 8.23369 11.2375 8.13141 11.1589C8.36414 10.7414 8.71863 10.5739 9.1597 10.4862ZM9.28416 13.5208C9.71063 13.5208 10.0814 13.3038 10.3087 12.9199L10.4386 12.6994H8.48318L8.47671 12.8419C8.46372 13.1675 8.64503 13.4095 8.96378 13.4886C9.05109 13.5082 9.14035 13.519 9.23006 13.5208H9.28416ZM20.2691 10.4862C20.8336 10.3733 21.2822 10.453 21.746 10.6173C22.2986 10.8134 22.619 11.2421 22.619 11.797V14.2471H21.5555V13.5463L21.3006 13.7326C21.2818 13.7468 21.2259 13.7923 21.1982 13.8149L21.1827 13.8275C20.8213 14.1146 20.3603 14.2659 19.8881 14.2522C19.6949 14.2554 19.5039 14.2138 19.3318 14.1309C19.1597 14.048 19.0119 13.9265 18.9015 13.777C18.7764 13.6131 18.7164 13.4115 18.7131 13.1425C18.7045 12.4355 19.1986 12.214 19.6142 12.1523C19.7496 12.1321 19.8864 12.1221 20.0234 12.1221C20.4308 12.128 20.834 12.202 21.2141 12.3406L21.2384 12.3493C21.2481 12.3534 21.2584 12.3569 21.2676 12.36C21.3043 12.3729 21.3446 12.3729 21.3813 12.36L21.5658 12.3227C21.5658 12.3227 21.5507 11.8628 21.528 11.7515C21.4722 11.483 21.1345 11.2998 20.7811 11.3064C20.4775 11.312 20.1933 11.5581 20.031 11.7765C19.8262 11.6318 19.6738 11.5075 19.5257 11.3867L19.5249 11.3861C19.4351 11.312 19.3431 11.2375 19.2408 11.1589C19.473 10.7414 19.8275 10.5739 20.2691 10.4862ZM20.3936 13.5208C20.8195 13.5208 21.1908 13.3038 21.4175 12.92L21.5479 12.6994H19.5931L19.5866 12.8419C19.5731 13.1675 19.7544 13.4095 20.0737 13.4886C20.1608 13.5082 20.2499 13.519 20.3394 13.5208H20.3936ZM29.0117 10.6173C28.5479 10.453 28.0993 10.3733 27.5343 10.4862C27.0932 10.5739 26.7387 10.7414 26.506 11.1589C26.6082 11.2375 26.7003 11.312 26.7901 11.3861C26.9378 11.507 27.091 11.6316 27.2961 11.7765C27.4585 11.5581 27.7421 11.312 28.0462 11.3064C28.3996 11.2998 28.7373 11.483 28.7931 11.7515C28.8158 11.8628 28.831 12.3227 28.831 12.3227L28.6459 12.36C28.6094 12.3728 28.5692 12.3728 28.5328 12.36C28.5236 12.3569 28.5133 12.3534 28.5035 12.3493L28.4792 12.3406C28.0991 12.202 27.696 12.128 27.2885 12.1221C27.1515 12.1221 27.0147 12.1321 26.8794 12.1523C26.4638 12.214 25.9696 12.4355 25.9783 13.1425C25.9815 13.4115 26.0411 13.6131 26.1666 13.777C26.2771 13.9265 26.4249 14.048 26.597 14.1309C26.769 14.2138 26.9601 14.2554 27.1532 14.2522C27.6255 14.2659 28.0865 14.1146 28.4478 13.8275L28.4633 13.8149C28.491 13.7923 28.547 13.7468 28.5658 13.7326L28.8207 13.5463V14.2471H29.8841V11.797C29.8847 11.2421 29.5643 10.8134 29.0117 10.6173ZM28.6832 12.92C28.4559 13.3038 28.0852 13.5208 27.6587 13.5208H27.6046C27.5149 13.519 27.4256 13.5082 27.3383 13.4886C27.0195 13.4095 26.8383 13.1675 26.8513 12.8419L26.8577 12.6994H28.812L28.6832 12.92ZM24.7805 11.1844C24.9429 10.9052 25.1881 10.7633 25.5323 10.7484C25.6102 10.7449 25.6892 10.7454 25.7752 10.7464V11.7014L25.7573 11.7016C25.6727 11.7024 25.3608 11.7053 25.2297 11.7229C25.0101 11.7479 24.8067 11.8444 24.6545 11.9958C24.5022 12.1471 24.4108 12.3437 24.3957 12.5519C24.3903 12.6315 24.3921 12.7111 24.394 12.7894C24.3949 12.8282 24.3957 12.8666 24.3957 12.9046V12.9663V13.9408V14.2547H23.3647V10.798H24.393V11.2533V11.3717L24.6479 11.4273C24.6479 11.4273 24.7627 11.215 24.7805 11.1844ZM16.3253 11.6529C15.987 11.6825 15.738 11.9581 15.738 12.3073V14.2521H14.66V12.3425C14.6692 12.1832 14.623 12.0255 14.5284 11.8933C14.3688 11.6886 14.0641 11.5998 13.7708 11.6712C13.6455 11.7005 13.5329 11.7657 13.4485 11.8578C13.3642 11.95 13.3123 12.0646 13.2999 12.1858C13.2912 12.2499 13.2869 12.3146 13.2869 12.3792V14.2546H12.2153V10.7974H13.2912V11.5737L13.446 11.3185C13.7913 10.7473 14.4624 10.6488 14.9073 10.7662C15.3208 10.878 15.58 11.1878 15.671 11.6156L15.829 11.3175C16.1753 10.7463 16.9211 10.6585 17.366 10.7759C17.7768 10.8862 18.0203 11.1475 18.1058 11.5763C18.1264 11.6872 18.1362 11.7996 18.1351 11.9122V13.7146V14.25H17.1068V13.906V12.3573C17.1087 12.2936 17.1041 12.2298 17.0932 12.1669C17.0202 11.8091 16.7333 11.6166 16.3253 11.6529Z" fill="black"/>
</g>
<defs>
<linearGradient id="paint0_linear_51552_1178" x1="1.30473" y1="15.8984" x2="25.5668" y2="-2.03527" gradientUnits="userSpaceOnUse">
<stop offset="0.01" stop-color="#AAE1FF"/>
<stop offset="0.427083" stop-color="#F9BD9A"/>
<stop offset="0.51" stop-color="#FFBC8C"/>
<stop offset="0.640625" stop-color="#FFBE92"/>
<stop offset="0.75" stop-color="#F8BC8B"/>
<stop offset="0.88" stop-color="#F29F7E"/>
<stop offset="1" stop-color="#F0826B"/>
</linearGradient>
<linearGradient id="paint1_linear_51552_1178" x1="17.7655" y1="11.1285" x2="4.8198" y2="29.1036" gradientUnits="userSpaceOnUse">
<stop stop-color="white" stop-opacity="0"/>
<stop offset="0.463182" stop-color="#CAEDFF"/>
<stop offset="1" stop-color="#98D6F7" stop-opacity="0"/>
</linearGradient>
<linearGradient id="paint2_linear_51552_1178" x1="7.91236" y1="7.22992" x2="12.59" y2="22.9336" gradientUnits="userSpaceOnUse">
<stop offset="0.01" stop-color="#FFE08B"/>
<stop offset="0.130208" stop-color="#FFE294" stop-opacity="0.590397"/>
<stop offset="0.303475" stop-color="#FFD972" stop-opacity="0"/>
</linearGradient>
<radialGradient id="paint3_radial_51552_1178" cx="0" cy="0" r="1" gradientUnits="userSpaceOnUse" gradientTransform="translate(14.5173 11.9951) rotate(90) scale(3.97618 5.86349)">
<stop stop-color="#F8B483" stop-opacity="0.57"/>
<stop offset="1" stop-color="#F8B483" stop-opacity="0"/>
</radialGradient>
<radialGradient id="paint4_radial_51552_1178" cx="0" cy="0" r="1" gradientUnits="userSpaceOnUse" gradientTransform="translate(20.8 15.1058) rotate(90) scale(5.04286 10.9961)">
<stop stop-color="#EB84A4"/>
<stop offset="0.755208" stop-color="#EB84A4" stop-opacity="0"/>
</radialGradient>
<radialGradient id="paint5_radial_51552_1178" cx="0" cy="0" r="1" gradientUnits="userSpaceOnUse" gradientTransform="translate(27.1497 19.9624) rotate(117.912) scale(3.14534 6.72305)">
<stop stop-color="#EB84A4"/>
<stop offset="0.755208" stop-color="#EB84A4" stop-opacity="0"/>
</radialGradient>
<linearGradient id="paint6_linear_51552_1178" x1="15.1935" y1="12.1192" x2="25.5301" y2="22.9099" gradientUnits="userSpaceOnUse">
<stop offset="0.326812" stop-color="#EB84A4" stop-opacity="0"/>
<stop offset="1" stop-color="#9881BB"/>
</linearGradient>
</defs>
</svg>
