<svg width="40" height="40" viewBox="0 0 40 40" fill="none" xmlns="http://www.w3.org/2000/svg">
<circle cx="20" cy="20" r="20" fill="#FFDB00"/>
<path d="M18 18.5C18 19.3284 17.3284 20 16.5 20C15.6716 20 15 19.3284 15 18.5C15 17.6716 15.6716 17 16.5 17C17.3284 17 18 17.6716 18 18.5Z" fill="#111111"/>
<path d="M23.5 20C24.3284 20 25 19.3284 25 18.5C25 17.6716 24.3284 17 23.5 17C22.6716 17 22 17.6716 22 18.5C22 19.3284 22.6716 20 23.5 20Z" fill="#111111"/>
<path fill-rule="evenodd" clip-rule="evenodd" d="M28 20V22C28 22.5523 27.5523 23 27 23H19.5817L16 26.5845V23H13C12.4477 23 12 22.5523 12 22V15C12 14.4477 12.4477 14 13 14H22V12H13C11.3431 12 10 13.3431 10 15V22C10 23.6569 11.3431 25 13 25H14V29H16.4137L20.4105 25H27C28.6569 25 30 23.6569 30 22V20H28Z" fill="#111111"/>
<path d="M26.5 10C26.5 10 27.0837 11.7497 27.667 12.333C28.25 12.916 30 13.5 30 13.5C30 13.5 28.2502 14.0838 27.667 14.667C27.0838 15.2501 26.5 17 26.5 17C26.5 17 25.9162 15.2501 25.333 14.667C24.7497 14.0837 23 13.5 23 13.5C23 13.5 24.7497 12.9163 25.333 12.333C25.9163 11.7497 26.5 10 26.5 10Z" fill="#111111"/>
<path d="M29.5 15C29.5 15 29.8337 15.9997 30.167 16.333C30.5002 16.6662 31.5 17 31.5 17C31.5 17 30.5002 17.3337 30.167 17.667C29.8338 18.0002 29.5 19 29.5 19C29.5 19 29.1662 18.0002 28.833 17.667C28.4997 17.3337 27.5 17 27.5 17C27.5 17 28.4998 16.6663 28.833 16.333C29.1663 15.9997 29.5 15 29.5 15Z" fill="#111111"/>
</svg>
